<?xml version="1.0" encoding="UTF-8" ?>
<svg version="1.1" width="25" height="25" xmlns="http://www.w3.org/2000/svg" shape-rendering="crispEdges">
<rect x="11" y="2" width="1" height="1" fill="#303408" />
<rect x="10" y="3" width="1" height="1" fill="#303408" />
<rect x="11" y="3" width="1" height="1" fill="#303408" />
<rect x="11" y="4" width="1" height="1" fill="#303408" />
<rect x="12" y="4" width="1" height="1" fill="#474D0C" />
<rect x="3" y="5" width="1" height="1" fill="#5D6611" />
<rect x="4" y="5" width="1" height="1" fill="#5D6611" />
<rect x="5" y="5" width="1" height="1" fill="#5D6611" />
<rect x="9" y="5" width="1" height="1" fill="#303408" opacity="0.764706" />
<rect x="10" y="5" width="1" height="1" fill="#5A5A0B" />
<rect x="11" y="5" width="1" height="1" fill="#303408" />
<rect x="12" y="5" width="1" height="1" fill="#303408" />
<rect x="1" y="6" width="1" height="1" fill="#607317" />
<rect x="2" y="6" width="1" height="1" fill="#607317" />
<rect x="3" y="6" width="1" height="1" fill="#607317" />
<rect x="4" y="6" width="1" height="1" fill="#5A5A0B" />
<rect x="5" y="6" width="1" height="1" fill="#5A5A0B" />
<rect x="6" y="6" width="1" height="1" fill="#5D6611" />
<rect x="7" y="6" width="1" height="1" fill="#5D6611" />
<rect x="8" y="6" width="1" height="1" fill="#5A5A0B" />
<rect x="9" y="6" width="1" height="1" fill="#333709" />
<rect x="10" y="6" width="1" height="1" fill="#893C00" />
<rect x="11" y="6" width="1" height="1" fill="#AA4A00" />
<rect x="12" y="6" width="1" height="1" fill="#303408" />
<rect x="13" y="6" width="1" height="1" fill="#C45600" />
<rect x="14" y="6" width="1" height="1" fill="#C45600" />
<rect x="15" y="6" width="1" height="1" fill="#AA4A00" />
<rect x="16" y="6" width="1" height="1" fill="#AA4A00" />
<rect x="1" y="7" width="1" height="1" fill="#5A5A0B" />
<rect x="2" y="7" width="1" height="1" fill="#454106" />
<rect x="3" y="7" width="1" height="1" fill="#454106" />
<rect x="5" y="7" width="1" height="1" fill="#3A3D09" />
<rect x="6" y="7" width="1" height="1" fill="#3A3D09" />
<rect x="7" y="7" width="1" height="1" fill="#393806" />
<rect x="8" y="7" width="1" height="1" fill="#AA4A00" />
<rect x="9" y="7" width="1" height="1" fill="#893C00" />
<rect x="10" y="7" width="1" height="1" fill="#BF5300" />
<rect x="11" y="7" width="1" height="1" fill="#D65E00" />
<rect x="12" y="7" width="1" height="1" fill="#303408" />
<rect x="13" y="7" width="1" height="1" fill="#FF8000" />
<rect x="14" y="7" width="1" height="1" fill="#FF8000" />
<rect x="15" y="7" width="1" height="1" fill="#FF8000" />
<rect x="16" y="7" width="1" height="1" fill="#C45600" />
<rect x="17" y="7" width="1" height="1" fill="#AA4A00" />
<rect x="18" y="7" width="1" height="1" fill="#AA4A00" />
<rect x="3" y="8" width="1" height="1" fill="#474D0C" />
<rect x="4" y="8" width="1" height="1" fill="#3E460C" />
<rect x="5" y="8" width="1" height="1" fill="#474D0C" />
<rect x="6" y="8" width="1" height="1" fill="#393806" />
<rect x="7" y="8" width="1" height="1" fill="#AA4A00" />
<rect x="8" y="8" width="1" height="1" fill="#BF5300" />
<rect x="9" y="8" width="1" height="1" fill="#FF8000" />
<rect x="10" y="8" width="1" height="1" fill="#F47A00" />
<rect x="11" y="8" width="1" height="1" fill="#996006" />
<rect x="12" y="8" width="1" height="1" fill="#303408" />
<rect x="13" y="8" width="1" height="1" fill="#454106" />
<rect x="14" y="8" width="1" height="1" fill="#F37200" />
<rect x="15" y="8" width="1" height="1" fill="#FF9933" />
<rect x="16" y="8" width="1" height="1" fill="#ED7600" />
<rect x="17" y="8" width="1" height="1" fill="#FF8000" />
<rect x="18" y="8" width="1" height="1" fill="#FF8000" />
<rect x="19" y="8" width="1" height="1" fill="#894400" />
<rect x="3" y="9" width="1" height="1" fill="#454106" />
<rect x="4" y="9" width="1" height="1" fill="#363A09" />
<rect x="5" y="9" width="1" height="1" fill="#333507" />
<rect x="6" y="9" width="1" height="1" fill="#AA4A00" />
<rect x="7" y="9" width="1" height="1" fill="#FF8000" />
<rect x="8" y="9" width="1" height="1" fill="#FF9830" />
<rect x="9" y="9" width="1" height="1" fill="#FFA54A" />
<rect x="10" y="9" width="1" height="1" fill="#FF8000" />
<rect x="11" y="9" width="1" height="1" fill="#F37200" />
<rect x="12" y="9" width="1" height="1" fill="#864F06" />
<rect x="13" y="9" width="1" height="1" fill="#BF5300" />
<rect x="14" y="9" width="1" height="1" fill="#F37200" />
<rect x="15" y="9" width="1" height="1" fill="#FF8000" />
<rect x="16" y="9" width="1" height="1" fill="#FFA54A" />
<rect x="17" y="9" width="1" height="1" fill="#FF9830" />
<rect x="18" y="9" width="1" height="1" fill="#FFA54A" />
<rect x="19" y="9" width="1" height="1" fill="#FF9830" />
<rect x="20" y="9" width="1" height="1" fill="#893C00" />
<rect x="2" y="10" width="1" height="1" fill="#5A5A0B" />
<rect x="3" y="10" width="1" height="1" fill="#454106" />
<rect x="4" y="10" width="1" height="1" fill="#313507" />
<rect x="5" y="10" width="1" height="1" fill="#893C00" />
<rect x="6" y="10" width="1" height="1" fill="#BF5300" />
<rect x="7" y="10" width="1" height="1" fill="#FF9830" />
<rect x="8" y="10" width="1" height="1" fill="#FF9830" />
<rect x="9" y="10" width="1" height="1" fill="#FFA54A" />
<rect x="10" y="10" width="1" height="1" fill="#FFA54A" />
<rect x="11" y="10" width="1" height="1" fill="#FF9830" />
<rect x="12" y="10" width="1" height="1" fill="#FF9933" />
<rect x="13" y="10" width="1" height="1" fill="#F37200" />
<rect x="14" y="10" width="1" height="1" fill="#FF9830" />
<rect x="15" y="10" width="1" height="1" fill="#FFA54A" />
<rect x="16" y="10" width="1" height="1" fill="#FFA54A" />
<rect x="17" y="10" width="1" height="1" fill="#FF9933" />
<rect x="18" y="10" width="1" height="1" fill="#FF9830" />
<rect x="19" y="10" width="1" height="1" fill="#FFA54A" />
<rect x="20" y="10" width="1" height="1" fill="#FF9830" />
<rect x="21" y="10" width="1" height="1" fill="#893C00" />
<rect x="1" y="11" width="1" height="1" fill="#607317" opacity="0.996078" />
<rect x="2" y="11" width="1" height="1" fill="#5D6611" />
<rect x="3" y="11" width="1" height="1" fill="#353807" />
<rect x="4" y="11" width="1" height="1" fill="#AA4A00" />
<rect x="5" y="11" width="1" height="1" fill="#AA4A00" />
<rect x="6" y="11" width="1" height="1" fill="#F99530" />
<rect x="7" y="11" width="1" height="1" fill="#FF9830" />
<rect x="8" y="11" width="1" height="1" fill="#FF9933" />
<rect x="9" y="11" width="1" height="1" fill="#FFA54A" />
<rect x="10" y="11" width="1" height="1" fill="#FFAB57" />
<rect x="11" y="11" width="1" height="1" fill="#FFA54A" />
<rect x="12" y="11" width="1" height="1" fill="#FFAB57" />
<rect x="13" y="11" width="1" height="1" fill="#FFA54A" />
<rect x="14" y="11" width="1" height="1" fill="#FFA54A" />
<rect x="15" y="11" width="1" height="1" fill="#FFAB57" />
<rect x="16" y="11" width="1" height="1" fill="#FFA54A" />
<rect x="17" y="11" width="1" height="1" fill="#ED7600" />
<rect x="18" y="11" width="1" height="1" fill="#FF9830" />
<rect x="19" y="11" width="1" height="1" fill="#FF9830" />
<rect x="20" y="11" width="1" height="1" fill="#FFA54A" />
<rect x="21" y="11" width="1" height="1" fill="#893C00" />
<rect x="22" y="11" width="1" height="1" fill="#893C00" />
<rect x="1" y="12" width="1" height="1" fill="#5A5A0B" />
<rect x="2" y="12" width="1" height="1" fill="#454106" />
<rect x="3" y="12" width="1" height="1" fill="#353807" />
<rect x="4" y="12" width="1" height="1" fill="#AA4A00" />
<rect x="5" y="12" width="1" height="1" fill="#F59330" />
<rect x="6" y="12" width="1" height="1" fill="#F99530" />
<rect x="7" y="12" width="1" height="1" fill="#FFA54A" />
<rect x="8" y="12" width="1" height="1" fill="#FF9830" />
<rect x="9" y="12" width="1" height="1" fill="#FAA24A" />
<rect x="10" y="12" width="1" height="1" fill="#FF9830" />
<rect x="11" y="12" width="1" height="1" fill="#FFA54A" />
<rect x="12" y="12" width="1" height="1" fill="#FFA54A" />
<rect x="13" y="12" width="1" height="1" fill="#FFA54A" />
<rect x="14" y="12" width="1" height="1" fill="#FF9830" />
<rect x="15" y="12" width="1" height="1" fill="#FF9830" />
<rect x="16" y="12" width="1" height="1" fill="#FF9933" />
<rect x="17" y="12" width="1" height="1" fill="#FF9830" />
<rect x="18" y="12" width="1" height="1" fill="#FF9830" />
<rect x="19" y="12" width="1" height="1" fill="#FF9830" />
<rect x="20" y="12" width="1" height="1" fill="#FF9830" />
<rect x="21" y="12" width="1" height="1" fill="#F47A00" />
<rect x="22" y="12" width="1" height="1" fill="#893C00" />
<rect x="1" y="13" width="1" height="1" fill="#5A5A0B" />
<rect x="2" y="13" width="1" height="1" fill="#474D0C" />
<rect x="3" y="13" width="1" height="1" fill="#454106" />
<rect x="4" y="13" width="1" height="1" fill="#AC4B00" />
<rect x="5" y="13" width="1" height="1" fill="#ED7700" />
<rect x="6" y="13" width="1" height="1" fill="#FF9830" />
<rect x="7" y="13" width="1" height="1" fill="#FF9830" />
<rect x="8" y="13" width="1" height="1" fill="#FF8000" />
<rect x="9" y="13" width="1" height="1" fill="#FFA54A" />
<rect x="10" y="13" width="1" height="1" fill="#FFA54A" />
<rect x="11" y="13" width="1" height="1" fill="#FF9830" />
<rect x="12" y="13" width="1" height="1" fill="#FF8000" />
<rect x="13" y="13" width="1" height="1" fill="#FF9933" />
<rect x="14" y="13" width="1" height="1" fill="#FF9830" />
<rect x="15" y="13" width="1" height="1" fill="#FF9830" />
<rect x="16" y="13" width="1" height="1" fill="#FF9830" />
<rect x="17" y="13" width="1" height="1" fill="#FF9830" />
<rect x="18" y="13" width="1" height="1" fill="#FF8000" />
<rect x="19" y="13" width="1" height="1" fill="#FF9933" />
<rect x="20" y="13" width="1" height="1" fill="#FF8000" />
<rect x="21" y="13" width="1" height="1" fill="#F47A00" />
<rect x="22" y="13" width="1" height="1" fill="#893C00" />
<rect x="1" y="14" width="1" height="1" fill="#5A5A0B" />
<rect x="2" y="14" width="1" height="1" fill="#474D0C" />
<rect x="3" y="14" width="1" height="1" fill="#554200" />
<rect x="4" y="14" width="1" height="1" fill="#AC4B00" />
<rect x="5" y="14" width="1" height="1" fill="#E17100" />
<rect x="6" y="14" width="1" height="1" fill="#FF8000" />
<rect x="7" y="14" width="1" height="1" fill="#FF8000" />
<rect x="8" y="14" width="1" height="1" fill="#ED7700" />
<rect x="9" y="14" width="1" height="1" fill="#FF8000" />
<rect x="10" y="14" width="1" height="1" fill="#FF9830" />
<rect x="11" y="14" width="1" height="1" fill="#FF9830" />
<rect x="12" y="14" width="1" height="1" fill="#FFA54A" />
<rect x="13" y="14" width="1" height="1" fill="#FAA24A" />
<rect x="14" y="14" width="1" height="1" fill="#FF9830" />
<rect x="15" y="14" width="1" height="1" fill="#FF8000" />
<rect x="16" y="14" width="1" height="1" fill="#FF8000" />
<rect x="17" y="14" width="1" height="1" fill="#FF8000" />
<rect x="18" y="14" width="1" height="1" fill="#FF8000" />
<rect x="19" y="14" width="1" height="1" fill="#FF8000" />
<rect x="20" y="14" width="1" height="1" fill="#F47A00" />
<rect x="21" y="14" width="1" height="1" fill="#DA6D00" />
<rect x="22" y="14" width="1" height="1" fill="#A64900" />
<rect x="2" y="15" width="1" height="1" fill="#554200" />
<rect x="4" y="15" width="1" height="1" fill="#893C00" />
<rect x="5" y="15" width="1" height="1" fill="#B44E00" />
<rect x="6" y="15" width="1" height="1" fill="#EF7800" />
<rect x="7" y="15" width="1" height="1" fill="#F37A00" />
<rect x="8" y="15" width="1" height="1" fill="#F77C00" />
<rect x="9" y="15" width="1" height="1" fill="#FF8000" />
<rect x="10" y="15" width="1" height="1" fill="#FF8000" />
<rect x="11" y="15" width="1" height="1" fill="#FF8000" />
<rect x="12" y="15" width="1" height="1" fill="#FF9830" />
<rect x="13" y="15" width="1" height="1" fill="#FF8000" />
<rect x="14" y="15" width="1" height="1" fill="#FF8000" />
<rect x="15" y="15" width="1" height="1" fill="#FF8000" />
<rect x="16" y="15" width="1" height="1" fill="#E17100" />
<rect x="17" y="15" width="1" height="1" fill="#FB7E00" />
<rect x="18" y="15" width="1" height="1" fill="#FD7E00" />
<rect x="19" y="15" width="1" height="1" fill="#F67B00" />
<rect x="20" y="15" width="1" height="1" fill="#ED7700" />
<rect x="21" y="15" width="1" height="1" fill="#A64900" />
<rect x="22" y="15" width="1" height="1" fill="#893C00" />
<rect x="2" y="16" width="1" height="1" fill="#554200" />
<rect x="4" y="16" width="1" height="1" fill="#893C00" />
<rect x="5" y="16" width="1" height="1" fill="#B44E00" />
<rect x="6" y="16" width="1" height="1" fill="#EB7A0A" />
<rect x="7" y="16" width="1" height="1" fill="#EF7800" />
<rect x="8" y="16" width="1" height="1" fill="#F57B00" />
<rect x="9" y="16" width="1" height="1" fill="#F97D00" />
<rect x="10" y="16" width="1" height="1" fill="#DA6D00" />
<rect x="11" y="16" width="1" height="1" fill="#FF8000" />
<rect x="12" y="16" width="1" height="1" fill="#FF8000" />
<rect x="13" y="16" width="1" height="1" fill="#FF8000" />
<rect x="14" y="16" width="1" height="1" fill="#ED7700" />
<rect x="15" y="16" width="1" height="1" fill="#FF8000" />
<rect x="16" y="16" width="1" height="1" fill="#F97C00" />
<rect x="17" y="16" width="1" height="1" fill="#F77C00" />
<rect x="18" y="16" width="1" height="1" fill="#F87C00" />
<rect x="19" y="16" width="1" height="1" fill="#DA6D00" />
<rect x="20" y="16" width="1" height="1" fill="#E97500" />
<rect x="21" y="16" width="1" height="1" fill="#B44E00" />
<rect x="22" y="16" width="1" height="1" fill="#893C00" />
<rect x="4" y="17" width="1" height="1" fill="#903F00" />
<rect x="5" y="17" width="1" height="1" fill="#893C00" />
<rect x="6" y="17" width="1" height="1" fill="#C75B00" />
<rect x="7" y="17" width="1" height="1" fill="#EC7600" />
<rect x="8" y="17" width="1" height="1" fill="#F17900" />
<rect x="9" y="17" width="1" height="1" fill="#F77C00" />
<rect x="10" y="17" width="1" height="1" fill="#FA7D00" />
<rect x="11" y="17" width="1" height="1" fill="#FF8000" />
<rect x="12" y="17" width="1" height="1" fill="#FF8000" />
<rect x="13" y="17" width="1" height="1" fill="#FF8000" />
<rect x="14" y="17" width="1" height="1" fill="#FF8000" />
<rect x="15" y="17" width="1" height="1" fill="#F97D00" />
<rect x="16" y="17" width="1" height="1" fill="#F77C00" />
<rect x="17" y="17" width="1" height="1" fill="#F47A00" />
<rect x="18" y="17" width="1" height="1" fill="#F07800" />
<rect x="19" y="17" width="1" height="1" fill="#E97500" />
<rect x="20" y="17" width="1" height="1" fill="#C45A00" />
<rect x="21" y="17" width="1" height="1" fill="#AC4B00" />
<rect x="22" y="17" width="1" height="1" fill="#893C00" />
<rect x="5" y="18" width="1" height="1" fill="#903F00" />
<rect x="6" y="18" width="1" height="1" fill="#C45A00" />
<rect x="7" y="18" width="1" height="1" fill="#DA6D00" />
<rect x="8" y="18" width="1" height="1" fill="#EA7500" opacity="0.972549" />
<rect x="9" y="18" width="1" height="1" fill="#EF7800" opacity="0.960784" />
<rect x="10" y="18" width="1" height="1" fill="#F37A00" />
<rect x="11" y="18" width="1" height="1" fill="#F77C00" />
<rect x="12" y="18" width="1" height="1" fill="#F77C00" />
<rect x="13" y="18" width="1" height="1" fill="#F87C00" />
<rect x="14" y="18" width="1" height="1" fill="#F77C00" />
<rect x="15" y="18" width="1" height="1" fill="#F57B00" />
<rect x="16" y="18" width="1" height="1" fill="#EF7700" opacity="0.984314" />
<rect x="17" y="18" width="1" height="1" fill="#EB7600" opacity="0.984314" />
<rect x="18" y="18" width="1" height="1" fill="#E77400" />
<rect x="19" y="18" width="1" height="1" fill="#E17100" />
<rect x="20" y="18" width="1" height="1" fill="#C45A00" />
<rect x="21" y="18" width="1" height="1" fill="#893C00" />
<rect x="22" y="18" width="1" height="1" fill="#893C00" />
<rect x="5" y="19" width="1" height="1" fill="#903F00" />
<rect x="6" y="19" width="1" height="1" fill="#903F00" />
<rect x="7" y="19" width="1" height="1" fill="#C45A00" />
<rect x="8" y="19" width="1" height="1" fill="#C45A00" />
<rect x="9" y="19" width="1" height="1" fill="#C25900" />
<rect x="10" y="19" width="1" height="1" fill="#DA6D00" />
<rect x="11" y="19" width="1" height="1" fill="#ED7700" />
<rect x="12" y="19" width="1" height="1" fill="#ED7700" />
<rect x="13" y="19" width="1" height="1" fill="#EE7700" />
<rect x="14" y="19" width="1" height="1" fill="#ED7700" />
<rect x="15" y="19" width="1" height="1" fill="#EB7600" />
<rect x="16" y="19" width="1" height="1" fill="#DA6D00" />
<rect x="17" y="19" width="1" height="1" fill="#E17100" />
<rect x="18" y="19" width="1" height="1" fill="#C45A00" />
<rect x="19" y="19" width="1" height="1" fill="#C45A00" />
<rect x="20" y="19" width="1" height="1" fill="#893C00" />
<rect x="21" y="19" width="1" height="1" fill="#893C00" />
<rect x="6" y="20" width="1" height="1" fill="#903F00" />
<rect x="7" y="20" width="1" height="1" fill="#903F00" />
<rect x="8" y="20" width="1" height="1" fill="#903F00" />
<rect x="9" y="20" width="1" height="1" fill="#B54F00" />
<rect x="10" y="20" width="1" height="1" fill="#C45A00" />
<rect x="11" y="20" width="1" height="1" fill="#C45A00" />
<rect x="12" y="20" width="1" height="1" fill="#BC5400" />
<rect x="13" y="20" width="1" height="1" fill="#C45A00" />
<rect x="14" y="20" width="1" height="1" fill="#C45A00" />
<rect x="15" y="20" width="1" height="1" fill="#C45A00" />
<rect x="16" y="20" width="1" height="1" fill="#C45A00" />
<rect x="17" y="20" width="1" height="1" fill="#893C00" />
<rect x="18" y="20" width="1" height="1" fill="#903F00" />
<rect x="19" y="20" width="1" height="1" fill="#903F00" />
<rect x="20" y="20" width="1" height="1" fill="#893C00" />
<rect x="8" y="21" width="1" height="1" fill="#893C00" />
<rect x="9" y="21" width="1" height="1" fill="#903F00" />
<rect x="10" y="21" width="1" height="1" fill="#903F00" />
<rect x="11" y="21" width="1" height="1" fill="#893C00" />
<rect x="12" y="21" width="1" height="1" fill="#893C00" />
<rect x="13" y="21" width="1" height="1" fill="#893C00" />
<rect x="14" y="21" width="1" height="1" fill="#903F00" />
<rect x="15" y="21" width="1" height="1" fill="#903F00" />
<rect x="16" y="21" width="1" height="1" fill="#903F00" />
<rect x="17" y="21" width="1" height="1" fill="#903F00" />
</svg>